<svg width="226" height="167" viewBox="0 0 226 167" fill="none" xmlns="http://www.w3.org/2000/svg">
<g filter="url(#filter0_d_353_4628)">
<rect x="21.3229" y="21.3229" width="182.562" height="124.354" rx="14.5521" fill="white" stroke="#D9D9D9" stroke-width="2.64583"/>
<path fill-rule="evenodd" clip-rule="evenodd" d="M107.472 103.387V87.4007H115.723C119.103 87.4007 121.957 86.2679 124.283 84.0336L124.842 83.4672C129.091 78.8414 128.812 71.6351 124.283 67.3554C122.019 65.0897 118.917 63.8625 115.723 63.9254H102.478V103.387H107.472ZM107.472 82.5546V68.7714H115.849C117.648 68.7714 119.354 69.4637 120.626 70.7225C123.325 73.3658 123.387 77.7714 120.781 80.5091C119.509 81.8623 117.71 82.6175 115.849 82.5546H107.472ZM148.136 78.4952C145.996 76.5127 143.08 75.5058 139.389 75.5058C134.643 75.5058 131.076 77.268 128.719 80.761L133.123 83.5616C134.736 81.17 136.939 79.9743 139.73 79.9743C141.498 79.9743 143.204 80.6351 144.538 81.8309C145.841 82.9637 146.585 84.6001 146.585 86.3308V87.4952C144.662 86.4252 142.243 85.8588 139.265 85.8588C135.791 85.8588 132.999 86.677 130.921 88.3448C128.843 90.0126 127.788 92.2154 127.788 95.0161C127.726 97.565 128.812 99.9881 130.735 101.624C132.689 103.387 135.171 104.268 138.086 104.268C141.529 104.268 144.259 102.726 146.337 99.6419H146.554V103.387H151.331V86.7399C151.331 83.247 150.276 80.4777 148.136 78.4952ZM134.582 98.4146C133.558 97.6594 132.938 96.4321 132.938 95.1105C132.938 93.6315 133.62 92.4042 134.954 91.4287C136.319 90.4532 138.026 89.9497 140.042 89.9497C142.834 89.9182 145.006 90.5476 146.557 91.8063C146.557 93.9461 145.719 95.8028 144.075 97.3762C142.586 98.8867 140.569 99.7363 138.46 99.7363C137.064 99.7678 135.699 99.2958 134.582 98.4146ZM162.063 115.25L178.75 76.3869H173.322L165.599 95.7713H165.506L157.596 76.3869H152.168L163.117 101.656L156.914 115.25H162.063Z" fill="#3C4043"/>
<path d="M90.2315 83.9391C90.2315 82.3971 90.1074 80.8552 89.8593 79.3447H68.7985V88.0614H80.8642C80.368 90.8621 78.755 93.3796 76.3977 94.953V100.617H83.5938C87.8121 96.6837 90.2315 90.8621 90.2315 83.9391Z" fill="#4285F4"/>
<path d="M68.7994 106.093C74.8168 106.093 79.9037 104.079 83.5947 100.617L76.3987 94.9531C74.3826 96.3377 71.8081 97.1244 68.7994 97.1244C62.9681 97.1244 58.0364 93.1279 56.2684 87.7783H48.8552V93.6314C52.6393 101.278 60.3627 106.093 68.7994 106.093Z" fill="#34A853"/>
<path d="M56.2692 87.7784C55.3385 84.9777 55.3385 81.9253 56.2692 79.0931V73.2715H48.8549C45.6595 79.6595 45.6595 87.2119 48.8549 93.6L56.2692 87.7784Z" fill="#FBBC04"/>
<path d="M68.7994 69.7469C71.9942 69.684 75.0649 70.9113 77.3602 73.1455L83.7498 66.663C79.6865 62.8239 74.3515 60.7155 68.7994 60.7785C60.3627 60.7785 52.6393 65.6246 48.8552 73.2714L56.2684 79.1245C58.0364 73.7434 62.9681 69.7469 68.7994 69.7469Z" fill="#EA4335"/>
</g>
<defs>
<filter id="filter0_d_353_4628" x="0" y="0" width="225.208" height="167" filterUnits="userSpaceOnUse" color-interpolation-filters="sRGB">
<feFlood flood-opacity="0" result="BackgroundImageFix"/>
<feColorMatrix in="SourceAlpha" type="matrix" values="0 0 0 0 0 0 0 0 0 0 0 0 0 0 0 0 0 0 127 0" result="hardAlpha"/>
<feOffset/>
<feGaussianBlur stdDeviation="10"/>
<feComposite in2="hardAlpha" operator="out"/>
<feColorMatrix type="matrix" values="0 0 0 0 0 0 0 0 0 0 0 0 0 0 0 0 0 0 0.07 0"/>
<feBlend mode="normal" in2="BackgroundImageFix" result="effect1_dropShadow_353_4628"/>
<feBlend mode="normal" in="SourceGraphic" in2="effect1_dropShadow_353_4628" result="shape"/>
</filter>
</defs>
</svg>
